<svg width="20" height="20" viewBox="0 0 20 20" fill="none" xmlns="http://www.w3.org/2000/svg">
<path fill-rule="evenodd" clip-rule="evenodd" d="M9.99998 0.833328C10.4602 0.833328 10.8333 1.20642 10.8333 1.66666V9.16666H18.3333C18.7935 9.16666 19.1666 9.53976 19.1666 9.99999C19.1666 10.4602 18.7935 10.8333 18.3333 10.8333H10.8333V18.3333C10.8333 18.7936 10.4602 19.1667 9.99998 19.1667C9.53974 19.1667 9.16665 18.7936 9.16665 18.3333V10.8333H1.66665C1.20641 10.8333 0.833313 10.4602 0.833313 9.99999C0.833313 9.53976 1.20641 9.16666 1.66665 9.16666H9.16665V1.66666C9.16665 1.20642 9.53974 0.833328 9.99998 0.833328Z" fill="#2D2A2B"/>
</svg>
