<svg width="24" height="24" viewBox="0 0 24 24" fill="none" xmlns="http://www.w3.org/2000/svg">
<path d="M16.6512 21.9977H7.34884C4.14884 21.9977 2 19.8488 2 16.6488V11.9977C2 9.13256 3.76744 7.05814 6.51163 6.71396C6.77209 6.67675 7.06047 6.64884 7.34884 6.64884H16.6512C16.8744 6.64884 17.1628 6.65813 17.4605 6.70465C20.2047 7.02093 22 9.10465 22 11.9977V16.6488C22 19.8488 19.8512 21.9977 16.6512 21.9977ZM7.34884 8.04418C7.12558 8.04418 6.91163 8.06278 6.69767 8.09068C4.65116 8.35115 3.39535 9.83953 3.39535 11.9977V16.6488C3.39535 19.0488 4.94884 20.6023 7.34884 20.6023H16.6512C19.0512 20.6023 20.6047 19.0488 20.6047 16.6488V11.9977C20.6047 9.82093 19.3302 8.32326 17.2651 8.0814C17.0419 8.04419 16.8465 8.04418 16.6512 8.04418H7.34884Z" fill="#EEF2FF" fill-opacity="0.8"/>
<path d="M6.59539 8.10001C6.37214 8.10001 6.16749 7.99768 6.02795 7.81164C5.86981 7.59768 5.85121 7.31862 5.97214 7.08606C6.13028 6.76978 6.35353 6.4628 6.6419 6.18373L9.66516 3.15116C11.2093 1.61628 13.721 1.61628 15.2652 3.15116L16.8931 4.79769C17.5814 5.47676 18 6.38839 18.0466 7.35583C18.0559 7.56979 17.9721 7.77441 17.814 7.91395C17.6559 8.05348 17.4419 8.11862 17.2373 8.08141C17.0512 8.05351 16.8558 8.04418 16.6512 8.04418H7.34884C7.12558 8.04418 6.91163 8.06278 6.69767 8.09068C6.66977 8.09999 6.6326 8.10001 6.59539 8.10001ZM8.14888 6.64885H16.4838C16.3628 6.33257 16.1675 6.0442 15.907 5.78374L14.2698 4.12792C13.2745 3.14188 11.6466 3.14188 10.6419 4.12792L8.14888 6.64885Z" fill="#EEF2FF" fill-opacity="0.8"/>
<path d="M21.3023 16.8814H18.5116C17.0977 16.8814 15.9535 15.7372 15.9535 14.3233C15.9535 12.9093 17.0977 11.7651 18.5116 11.7651H21.3023C21.6837 11.7651 22 12.0814 22 12.4628C22 12.8442 21.6837 13.1605 21.3023 13.1605H18.5116C17.8698 13.1605 17.3488 13.6814 17.3488 14.3233C17.3488 14.9651 17.8698 15.486 18.5116 15.486H21.3023C21.6837 15.486 22 15.8023 22 16.1837C22 16.5651 21.6837 16.8814 21.3023 16.8814Z" fill="#EEF2FF" fill-opacity="0.8"/>
</svg>
