<svg width="24" height="24" viewBox="0 0 24 24" fill="none" xmlns="http://www.w3.org/2000/svg">
<path fill-rule="evenodd" clip-rule="evenodd" d="M7.23721 15.0977C7.62252 15.0977 7.93488 15.41 7.93488 15.7953V17.7209C7.93488 18.1062 7.62252 18.4186 7.23721 18.4186C6.85189 18.4186 6.53954 18.1062 6.53954 17.7209V15.7953C6.53954 15.41 6.85189 15.0977 7.23721 15.0977Z" fill="#EEF2FF" fill-opacity="0.8"/>
<path fill-rule="evenodd" clip-rule="evenodd" d="M12 13.1721C12.3853 13.1721 12.6977 13.4845 12.6977 13.8698V17.7209C12.6977 18.1062 12.3853 18.4186 12 18.4186C11.6147 18.4186 11.3023 18.1062 11.3023 17.7209V13.8698C11.3023 13.4845 11.6147 13.1721 12 13.1721Z" fill="#EEF2FF" fill-opacity="0.8"/>
<path fill-rule="evenodd" clip-rule="evenodd" d="M16.7628 11.2372C17.1481 11.2372 17.4605 11.5496 17.4605 11.9349V17.7209C17.4605 18.1062 17.1481 18.4186 16.7628 18.4186C16.3775 18.4186 16.0651 18.1062 16.0651 17.7209V11.9349C16.0651 11.5496 16.3775 11.2372 16.7628 11.2372Z" fill="#EEF2FF" fill-opacity="0.8"/>
<path fill-rule="evenodd" clip-rule="evenodd" d="M17.2152 5.74797C17.5085 5.99783 17.5438 6.43817 17.2939 6.73149L16.865 7.235C14.3982 10.1177 11.0904 12.1583 7.406 13.0769C7.03213 13.1702 6.65348 12.9427 6.56026 12.5688C6.46704 12.1949 6.69455 11.8163 7.06842 11.7231C10.4722 10.8743 13.527 8.98953 15.8044 6.32829L16.2317 5.82665C16.4816 5.53333 16.9219 5.49811 17.2152 5.74797Z" fill="#EEF2FF" fill-opacity="0.8"/>
<path fill-rule="evenodd" clip-rule="evenodd" d="M13.3395 6.27907C13.3395 5.89375 13.6519 5.5814 14.0372 5.5814H16.7628C17.1481 5.5814 17.4605 5.89375 17.4605 6.27907V8.99535C17.4605 9.38066 17.1481 9.69302 16.7628 9.69302C16.3775 9.69302 16.0651 9.38066 16.0651 8.99535V6.97674H14.0372C13.6519 6.97674 13.3395 6.66438 13.3395 6.27907Z" fill="#EEF2FF" fill-opacity="0.8"/>
<path fill-rule="evenodd" clip-rule="evenodd" d="M3.71597 3.71597C4.95734 2.47461 6.81491 2 9.2093 2H14.7907C17.1851 2 19.0427 2.47461 20.284 3.71597C21.5254 4.95734 22 6.81491 22 9.2093V14.7907C22 17.1851 21.5254 19.0427 20.284 20.284C19.0427 21.5254 17.1851 22 14.7907 22H9.2093C6.81491 22 4.95734 21.5254 3.71597 20.284C2.47461 19.0427 2 17.1851 2 14.7907V9.2093C2 6.81491 2.47461 4.95734 3.71597 3.71597ZM4.70263 4.70263C3.85098 5.55429 3.39535 6.95253 3.39535 9.2093V14.7907C3.39535 17.0475 3.85098 18.4457 4.70263 19.2974C5.55429 20.149 6.95253 20.6047 9.2093 20.6047H14.7907C17.0475 20.6047 18.4457 20.149 19.2974 19.2974C20.149 18.4457 20.6047 17.0475 20.6047 14.7907V9.2093C20.6047 6.95253 20.149 5.55429 19.2974 4.70263C18.4457 3.85098 17.0475 3.39535 14.7907 3.39535H9.2093C6.95253 3.39535 5.55429 3.85098 4.70263 4.70263Z" fill="#EEF2FF" fill-opacity="0.8"/>
</svg>
