<svg width="24" height="24" viewBox="0 0 24 24" fill="none" xmlns="http://www.w3.org/2000/svg">
<path d="M14.0977 11.4419H9.44651C9.06512 11.4419 8.74884 11.1256 8.74884 10.7442C8.74884 10.3628 9.06512 10.0465 9.44651 10.0465H14.0977C14.4791 10.0465 14.7953 10.3628 14.7953 10.7442C14.7953 11.1256 14.4791 11.4419 14.0977 11.4419Z" fill="#6C757D"/>
<path d="M11.7721 13.8233C11.3907 13.8233 11.0744 13.507 11.0744 13.1256V8.47442C11.0744 8.09302 11.3907 7.77674 11.7721 7.77674C12.1535 7.77674 12.4698 8.09302 12.4698 8.47442V13.1256C12.4698 13.507 12.1535 13.8233 11.7721 13.8233Z" fill="#6C757D"/>
<path d="M18.3488 22C17.8744 22 17.3535 21.8605 16.8512 21.5721L12.3116 19.0512C12.0419 18.9023 11.5116 18.9023 11.2419 19.0512L6.70233 21.5721C5.7814 22.0837 4.84186 22.1395 4.12558 21.7116C3.4093 21.293 3 20.4465 3 19.3953V6.28837C3 3.92558 4.92558 2 7.28837 2H16.2651C18.6279 2 20.5535 3.92558 20.5535 6.28837V19.3953C20.5535 20.4465 20.1442 21.293 19.4279 21.7116C19.1023 21.907 18.7302 22 18.3488 22ZM11.7721 17.5442C12.2093 17.5442 12.6372 17.6372 12.9814 17.8326L17.5209 20.3535C17.9953 20.6233 18.4326 20.6791 18.7116 20.5116C18.9907 20.3442 19.1488 19.9442 19.1488 19.3953V6.28837C19.1488 4.69767 17.8465 3.39535 16.2558 3.39535H7.28837C5.69767 3.39535 4.39535 4.69767 4.39535 6.28837V19.3953C4.39535 19.9442 4.55349 20.3535 4.83256 20.5116C5.11163 20.6698 5.54884 20.6233 6.02326 20.3535L10.5628 17.8326C10.907 17.6372 11.3349 17.5442 11.7721 17.5442Z" fill="#6C757D"/>
</svg>
