<svg width="24" height="24" viewBox="0 0 24 24" fill="none" xmlns="http://www.w3.org/2000/svg">
<path fill-rule="evenodd" clip-rule="evenodd" d="M2.8133 7.17882C3.63694 6.1996 5.04905 5.72093 7.11699 5.72093H16.4193C18.4873 5.72093 19.8994 6.1996 20.723 7.17882C21.5386 8.14852 21.6162 9.42247 21.4855 10.6103L20.7875 18.0557C20.685 19.0121 20.4449 20.0606 19.591 20.8407C18.7435 21.615 17.4303 22 15.4891 22H8.04722C6.10597 22 4.79283 21.615 3.94526 20.8407C3.09136 20.0606 2.85133 19.0121 2.74887 18.0557L2.74788 18.0465L2.0508 10.6104C1.92008 9.42249 1.99766 8.14853 2.8133 7.17882ZM3.88114 8.077C3.44232 8.5987 3.31881 9.38259 3.43834 10.4628L3.43962 10.4744L4.13676 17.9116C4.22983 18.7761 4.42249 19.3867 4.8864 19.8105C5.35743 20.2408 6.24894 20.6047 8.04722 20.6047H15.4891C17.2874 20.6047 18.1789 20.2408 18.6499 19.8105C19.1138 19.3867 19.3065 18.7761 19.3995 17.9116L20.0979 10.4628C20.2174 9.38258 20.094 8.5987 19.6552 8.077C19.223 7.56319 18.3235 7.11628 16.4193 7.11628H7.11699C5.21284 7.11628 4.31332 7.56319 3.88114 8.077Z" fill="#6C757D"/>
<path fill-rule="evenodd" clip-rule="evenodd" d="M8.78554 4.605C8.74602 4.90769 8.7449 5.25167 8.7449 5.67442V6.4186C8.7449 6.80392 8.43254 7.11628 8.04722 7.11628C7.66191 7.11628 7.34955 6.80392 7.34955 6.4186L7.34955 5.65024C7.34952 5.25626 7.3495 4.82594 7.40193 4.42436C7.45626 4.00827 7.57267 3.56652 7.84538 3.17193C8.41909 2.34185 9.47002 2 11.024 2H12.5123C14.0663 2 15.1172 2.34185 15.6909 3.17193C15.9636 3.56652 16.08 4.00827 16.1344 4.42436C16.1868 4.82594 16.1868 5.25627 16.1868 5.65025L16.1868 6.4186C16.1868 6.80392 15.8744 7.11628 15.4891 7.11628C15.1038 7.11628 14.7914 6.80392 14.7914 6.4186V5.67442C14.7914 5.25167 14.7903 4.90769 14.7508 4.605C14.7121 4.30859 14.6424 4.10906 14.5431 3.96528C14.3726 3.71861 13.9351 3.39535 12.5123 3.39535H11.024C9.60117 3.39535 9.16373 3.71861 8.99325 3.96528C8.89387 4.10906 8.82424 4.30859 8.78554 4.605Z" fill="#6C757D"/>
<path fill-rule="evenodd" clip-rule="evenodd" d="M10.6061 12.6984C10.6054 12.7648 10.6054 12.8405 10.6054 12.9302V13.8884C10.6054 14.1502 10.6076 14.3429 10.6304 14.5063C10.6523 14.6635 10.687 14.7399 10.7164 14.7815C10.7493 14.8278 10.9129 15.0233 11.7682 15.0233C12.6273 15.0233 12.789 14.8259 12.8211 14.78C12.8507 14.7377 12.8854 14.6601 12.9069 14.5011C12.9292 14.3358 12.9309 14.1423 12.9309 13.8791V12.9302C12.9309 12.8405 12.9309 12.7648 12.9302 12.6984C12.8638 12.6977 12.7881 12.6977 12.6984 12.6977H10.8379C10.7482 12.6977 10.6725 12.6977 10.6061 12.6984ZM10.8074 11.3023C10.8176 11.3023 10.8277 11.3023 10.8379 11.3023H12.6984C12.7086 11.3023 12.7187 11.3023 12.7289 11.3023C12.9347 11.3023 13.1431 11.3022 13.3132 11.3211C13.4866 11.3404 13.7746 11.3919 14.0057 11.6229C14.2367 11.854 14.2882 12.142 14.3075 12.3154C14.3264 12.4855 14.3263 12.694 14.3263 12.8997C14.3263 12.9099 14.3263 12.9201 14.3263 12.9302V13.8895C14.3263 14.1311 14.3263 14.417 14.2896 14.6882C14.2515 14.9696 14.1682 15.289 13.964 15.5805C13.5287 16.202 12.7602 16.4186 11.7682 16.4186C10.7816 16.4186 10.015 16.2048 9.57802 15.5883C9.37257 15.2985 9.28754 14.9802 9.24836 14.6986C9.21006 14.4234 9.21001 14.1335 9.21001 13.8884V12.9302C9.21001 12.9201 9.21001 12.9099 9.21001 12.8997C9.20996 12.694 9.20991 12.4855 9.22882 12.3154C9.24808 12.142 9.29959 11.854 9.53064 11.6229C9.76168 11.3919 10.0497 11.3404 10.2231 11.3211C10.3932 11.3022 10.6017 11.3023 10.8074 11.3023Z" fill="#6C757D"/>
<path fill-rule="evenodd" clip-rule="evenodd" d="M21.3091 10.6594C21.5358 10.971 21.4669 11.4074 21.1552 11.634C18.9077 13.2686 16.3398 14.2408 13.7158 14.5713C13.3335 14.6194 12.9846 14.3485 12.9364 13.9662C12.8883 13.5839 13.1592 13.235 13.5415 13.1869C15.9407 12.8847 18.2844 11.9965 20.3345 10.5055C20.6462 10.2789 21.0825 10.3478 21.3091 10.6594Z" fill="#6C757D"/>
<path fill-rule="evenodd" clip-rule="evenodd" d="M2.46684 10.9269C2.68447 10.6089 3.11866 10.5276 3.43663 10.7452C5.4356 12.1134 7.68978 12.938 9.98532 13.195C10.3682 13.2379 10.6439 13.5831 10.601 13.966C10.5582 14.3489 10.213 14.6246 9.83005 14.5817C7.30699 14.2992 4.83559 13.3936 2.64851 11.8967C2.33055 11.679 2.24921 11.2448 2.46684 10.9269Z" fill="#6C757D"/>
</svg>
