<svg width="24" height="24" viewBox="0 0 24 24" fill="none" xmlns="http://www.w3.org/2000/svg">
<path fill-rule="evenodd" clip-rule="evenodd" d="M8.34884 2C8.73415 2 9.04651 2.31236 9.04651 2.69767V5.48837C9.04651 5.87369 8.73415 6.18605 8.34884 6.18605C7.96352 6.18605 7.65116 5.87369 7.65116 5.48837V2.69767C7.65116 2.31236 7.96352 2 8.34884 2Z" fill="#8A959E"/>
<path fill-rule="evenodd" clip-rule="evenodd" d="M15.7907 2C16.176 2 16.4884 2.31236 16.4884 2.69767V5.48837C16.4884 5.87369 16.176 6.18605 15.7907 6.18605C15.4054 6.18605 15.093 5.87369 15.093 5.48837V2.69767C15.093 2.31236 15.4054 2 15.7907 2Z" fill="#8A959E"/>
<path fill-rule="evenodd" clip-rule="evenodd" d="M3.46512 9.29302C3.46512 8.90771 3.77748 8.59535 4.16279 8.59535H19.9767C20.3621 8.59535 20.6744 8.90771 20.6744 9.29302C20.6744 9.67834 20.3621 9.99069 19.9767 9.99069H4.16279C3.77748 9.99069 3.46512 9.67834 3.46512 9.29302Z" fill="#8A959E"/>
<path fill-rule="evenodd" clip-rule="evenodd" d="M5.31358 5.84683C4.71755 6.4887 4.39535 7.45579 4.39535 8.74419V16.6512C4.39535 17.9396 4.71755 18.9066 5.31358 19.5485C5.90091 20.181 6.85391 20.6047 8.34884 20.6047H15.7907C17.2856 20.6047 18.2386 20.181 18.826 19.5485C19.422 18.9066 19.7442 17.9396 19.7442 16.6512V8.74419C19.7442 7.45579 19.422 6.4887 18.826 5.84683C18.2386 5.21431 17.2856 4.7907 15.7907 4.7907H8.34884C6.85391 4.7907 5.90091 5.21431 5.31358 5.84683ZM4.29107 4.89736C5.21537 3.90197 6.58795 3.39535 8.34884 3.39535H15.7907C17.5516 3.39535 18.9242 3.90197 19.8485 4.89736C20.7641 5.88339 21.1395 7.24189 21.1395 8.74419V16.6512C21.1395 18.1535 20.7641 19.512 19.8485 20.498C18.9242 21.4934 17.5516 22 15.7907 22H8.34884C6.58795 22 5.21537 21.4934 4.29107 20.498C3.37547 19.512 3 18.1535 3 16.6512V8.74419C3 7.24189 3.37547 5.88339 4.29107 4.89736Z" fill="#8A959E"/>
</svg>
