<svg width="28" height="28" viewBox="0 0 28 28" fill="none" xmlns="http://www.w3.org/2000/svg">
<path d="M19.9147 25.6666C18.6884 25.6666 17.3969 25.3736 16.062 24.8092C14.7597 24.2557 13.4465 23.496 12.1659 22.5736C10.8961 21.6402 9.66978 20.5984 8.50854 19.4588C7.35815 18.2976 6.31629 17.0712 5.39381 15.8123C4.46048 14.51 3.71164 13.2077 3.17986 11.9488C2.61551 10.603 2.33334 9.30069 2.33334 8.07434C2.33334 7.22783 2.48528 6.42472 2.7783 5.67589C3.08218 4.90534 3.57055 4.18907 4.23257 3.57046C5.06823 2.74566 6.02327 2.33325 7.04342 2.33325C7.46668 2.33325 7.90078 2.43093 8.26978 2.60457C8.69303 2.79992 9.05117 3.09294 9.31164 3.48364L11.8295 7.03248C12.0574 7.34721 12.231 7.65108 12.3504 7.95496C12.4915 8.28054 12.5675 8.60612 12.5675 8.92085C12.5675 9.33325 12.4481 9.7348 12.2202 10.1146C12.0574 10.4077 11.8078 10.7224 11.493 11.0371L10.755 11.8077C10.7659 11.8402 10.7768 11.8619 10.7876 11.8836C10.9178 12.1115 11.1783 12.5022 11.6775 13.0883C12.2093 13.696 12.7085 14.2495 13.2078 14.7596C13.8481 15.3891 14.3799 15.8883 14.8791 16.3007C15.4977 16.8216 15.8992 17.0821 16.138 17.2015L16.1163 17.2557L16.9085 16.4743C17.245 16.1379 17.5706 15.8883 17.8853 15.7255C18.4822 15.3565 19.2419 15.2914 20.0016 15.6061C20.2837 15.7255 20.5876 15.8883 20.9132 16.1162L24.5163 18.6774C24.9178 18.9488 25.2109 19.296 25.3845 19.7084C25.5473 20.1208 25.6233 20.5007 25.6233 20.8805C25.6233 21.4015 25.5039 21.9224 25.276 22.4108C25.0481 22.8991 24.7659 23.3224 24.4078 23.7131C23.7892 24.3968 23.1163 24.8852 22.3349 25.1999C21.5861 25.5038 20.7721 25.6666 19.9147 25.6666ZM7.04342 3.96116C6.44652 3.96116 5.89303 4.22162 5.36125 4.74255C4.86203 5.20922 4.51474 5.7193 4.29768 6.27279C4.06978 6.83713 3.96125 7.43403 3.96125 8.07434C3.96125 9.08364 4.20001 10.1798 4.67753 11.3084C5.1659 12.4588 5.84962 13.6526 6.71784 14.8464C7.58606 16.0402 8.57365 17.2015 9.65892 18.2976C10.7442 19.372 11.9163 20.3705 13.1209 21.2495C14.293 22.1069 15.4977 22.8015 16.6915 23.3007C18.5473 24.0929 20.2837 24.2774 21.7163 23.6805C22.2698 23.4526 22.7581 23.1053 23.2031 22.6061C23.4527 22.3348 23.6481 22.0418 23.8109 21.6945C23.9411 21.4232 24.0062 21.141 24.0062 20.8588C24.0062 20.6852 23.9737 20.5115 23.8868 20.3162C23.8543 20.2511 23.7892 20.1317 23.583 19.9906L19.9799 17.4294C19.7628 17.2774 19.5674 17.1689 19.383 17.0929C19.1442 16.9953 19.0465 16.8976 18.6775 17.1255C18.4605 17.234 18.2651 17.3968 18.0481 17.6139L17.2233 18.4278C16.8 18.8402 16.1488 18.9379 15.6496 18.7534L15.3566 18.6232C14.9116 18.3844 14.3907 18.0154 13.8155 17.527C13.2946 17.0821 12.7302 16.5612 12.0465 15.8883C11.5147 15.3457 10.983 14.7705 10.4295 14.1301C9.91939 13.5333 9.5504 13.0232 9.32249 12.5999L9.19226 12.2743C9.12714 12.0247 9.10544 11.8836 9.10544 11.7317C9.10544 11.341 9.24652 10.9937 9.51784 10.7224L10.3318 9.87589C10.5488 9.65883 10.7116 9.45263 10.8202 9.26814C10.907 9.12705 10.9395 9.00767 10.9395 8.89914C10.9395 8.81232 10.907 8.68209 10.8527 8.55186C10.7768 8.37821 10.6574 8.18286 10.5054 7.97666L7.98761 4.41697C7.87908 4.26503 7.74885 4.15651 7.58606 4.08054C7.41241 4.00457 7.22792 3.96116 7.04342 3.96116ZM16.1163 17.2666L15.9426 18.0046L16.2357 17.2449C16.1814 17.234 16.138 17.2449 16.1163 17.2666Z" fill="#25A79C"/>
</svg>
