<svg width="24" height="24" viewBox="0 0 24 24" fill="none" xmlns="http://www.w3.org/2000/svg">
<g opacity="0.5">
<path d="M12 22C6.48372 22 2 17.5163 2 12C2 6.48372 6.48372 2 12 2C17.5163 2 22 6.48372 22 12C22 17.5163 17.5163 22 12 22ZM12 3.39535C7.25581 3.39535 3.39535 7.25581 3.39535 12C3.39535 16.7442 7.25581 20.6047 12 20.6047C16.7442 20.6047 20.6047 16.7442 20.6047 12C20.6047 7.25581 16.7442 3.39535 12 3.39535Z" fill="#6C757D"/>
<path d="M9.36744 15.3302C9.1907 15.3302 9.01395 15.2651 8.87442 15.1256C8.60465 14.8558 8.60465 14.4093 8.87442 14.1395L14.1395 8.87442C14.4093 8.60465 14.8558 8.60465 15.1256 8.87442C15.3953 9.14419 15.3953 9.5907 15.1256 9.86047L9.86047 15.1256C9.73023 15.2651 9.54419 15.3302 9.36744 15.3302Z" fill="#6C757D"/>
<path d="M14.6326 15.3302C14.4558 15.3302 14.2791 15.2651 14.1395 15.1256L8.87442 9.86047C8.60465 9.5907 8.60465 9.14419 8.87442 8.87442C9.14419 8.60465 9.5907 8.60465 9.86047 8.87442L15.1256 14.1395C15.3953 14.4093 15.3953 14.8558 15.1256 15.1256C14.986 15.2651 14.8093 15.3302 14.6326 15.3302Z" fill="#6C757D"/>
</g>
</svg>
