<svg width="24" height="24" viewBox="0 0 24 24" fill="none" xmlns="http://www.w3.org/2000/svg">
<path fill-rule="evenodd" clip-rule="evenodd" d="M2.71684 2.6052C3.24444 2.13642 3.97809 2 4.77209 2H8.53023C9.32423 2 10.0579 2.13642 10.5855 2.6052C11.1341 3.09266 11.3023 3.79393 11.3023 4.53954V8.76279C11.3023 9.50788 11.1344 10.2102 10.5845 10.6969C10.0559 11.1647 9.32166 11.2977 8.52816 11.293H4.77209C3.98058 11.293 3.24624 11.1599 2.71785 10.6922C2.16752 10.2052 2 9.5023 2 8.75349V4.53954C2 3.79393 2.1682 3.09266 2.71684 2.6052ZM3.64363 3.64829C3.52483 3.75385 3.39535 3.97351 3.39535 4.53954V8.75349C3.39535 9.32561 3.5255 9.54367 3.64261 9.64732C3.78166 9.77038 4.08454 9.89767 4.77209 9.89767H8.53462C9.21931 9.90198 9.52139 9.77438 9.65972 9.65197C9.77727 9.54793 9.90698 9.32933 9.90698 8.76279V4.53954C9.90698 3.97351 9.7775 3.75385 9.6587 3.64829C9.51886 3.52404 9.2153 3.39535 8.53023 3.39535H4.77209C4.08702 3.39535 3.78347 3.52404 3.64363 3.64829ZM13.4145 2.6052C13.9421 2.13642 14.6758 2 15.4698 2H19.2279C20.0219 2 20.7556 2.13642 21.2832 2.6052C21.8318 3.09266 22 3.79393 22 4.53954V8.76279C22 9.50788 21.832 10.2102 21.2821 10.6969C20.7535 11.1647 20.0193 11.2977 19.2258 11.293H15.4698C14.6783 11.293 13.9439 11.1599 13.4155 10.6922C12.8652 10.2052 12.6977 9.5023 12.6977 8.75349V4.53954C12.6977 3.79393 12.8659 3.09266 13.4145 2.6052ZM14.3413 3.64829C14.2225 3.75385 14.093 3.97351 14.093 4.53954V8.75349C14.093 9.32561 14.2232 9.54367 14.3403 9.64732C14.4793 9.77038 14.7822 9.89767 15.4698 9.89767H19.2323C19.917 9.90198 20.2191 9.77438 20.3574 9.65197C20.4749 9.54793 20.6047 9.32933 20.6047 8.76279V4.53954C20.6047 3.97351 20.4752 3.75385 20.3564 3.64829C20.2165 3.52404 19.913 3.39535 19.2279 3.39535H15.4698C14.7847 3.39535 14.4811 3.52404 14.3413 3.64829ZM2.6869 13.3846C3.21502 12.8565 3.96268 12.6977 4.77209 12.6977H8.53023C9.33964 12.6977 10.0873 12.8565 10.6154 13.3846C11.1435 13.9127 11.3023 14.6604 11.3023 15.4698V19.2279C11.3023 20.0373 11.1435 20.785 10.6154 21.3131C10.0873 21.8412 9.33964 22 8.53023 22H4.77209C3.96268 22 3.21502 21.8412 2.6869 21.3131C2.15878 20.785 2 20.0373 2 19.2279V15.4698C2 14.6604 2.15878 13.9127 2.6869 13.3846ZM3.67356 14.3712C3.53424 14.5106 3.39535 14.8001 3.39535 15.4698V19.2279C3.39535 19.8976 3.53424 20.1871 3.67356 20.3264C3.81288 20.4658 4.10243 20.6047 4.77209 20.6047H8.53023C9.19989 20.6047 9.48944 20.4658 9.62876 20.3264C9.76808 20.1871 9.90698 19.8976 9.90698 19.2279V15.4698C9.90698 14.8001 9.76808 14.5106 9.62876 14.3712C9.48944 14.2319 9.19989 14.093 8.53023 14.093H4.77209C4.10243 14.093 3.81288 14.2319 3.67356 14.3712ZM13.3846 13.3846C13.9127 12.8565 14.6604 12.6977 15.4698 12.6977H19.2279C20.0373 12.6977 20.785 12.8565 21.3131 13.3846C21.8412 13.9127 22 14.6604 22 15.4698V19.2279C22 20.0373 21.8412 20.785 21.3131 21.3131C20.785 21.8412 20.0373 22 19.2279 22H15.4698C14.6604 22 13.9127 21.8412 13.3846 21.3131C12.8565 20.785 12.6977 20.0373 12.6977 19.2279V15.4698C12.6977 14.6604 12.8565 13.9127 13.3846 13.3846ZM14.3712 14.3712C14.2319 14.5106 14.093 14.8001 14.093 15.4698V19.2279C14.093 19.8976 14.2319 20.1871 14.3712 20.3264C14.5106 20.4658 14.8001 20.6047 15.4698 20.6047H19.2279C19.8976 20.6047 20.1871 20.4658 20.3264 20.3264C20.4658 20.1871 20.6047 19.8976 20.6047 19.2279V15.4698C20.6047 14.8001 20.4658 14.5106 20.3264 14.3712C20.1871 14.2319 19.8976 14.093 19.2279 14.093H15.4698C14.8001 14.093 14.5106 14.2319 14.3712 14.3712Z" fill="black"/>
</svg>
