<svg width="24" height="25" viewBox="0 0 24 25" fill="none" xmlns="http://www.w3.org/2000/svg">
<path fill-rule="evenodd" clip-rule="evenodd" d="M5.76909 3.21821C6.3703 2.7783 7.11982 2.50001 7.87181 2.50001H11.5365C11.8956 2.50001 12.3241 2.55834 12.7237 2.67249C13.0909 2.77741 13.5241 2.95475 13.8427 3.2541L16.8011 5.54452L15.9156 6.68836L12.8898 4.34578L12.8573 4.31336C12.7931 4.24909 12.6195 4.14718 12.3263 4.06341C12.0507 3.98469 11.7559 3.94658 11.5365 3.94658H7.87181C7.46655 3.94658 7.01059 4.10226 6.62331 4.38564C6.23654 4.66864 5.96896 5.04102 5.87324 5.42392L5.86686 5.44942L3.54127 12.5231L3.53818 12.5317C3.36847 13.0069 3.45344 13.3768 3.63219 13.6194C3.81434 13.8666 4.16176 14.0726 4.68936 14.0726H8.54688C9.55306 14.0726 10.3877 14.9322 10.2273 16.0554L10.2259 16.0648L9.74013 19.1736L9.73513 19.1961C9.6284 19.6763 9.96947 20.2939 10.5115 20.4746L10.5242 20.4789L10.5367 20.4836C10.7325 20.557 10.9897 20.5553 11.2531 20.4647C11.5214 20.3725 11.7149 20.216 11.8026 20.0845L11.8041 20.0822L15.7581 14.1995L16.9587 15.0065L13.0062 20.8869L13.0054 20.8881C12.7072 21.3347 12.2262 21.6599 11.7234 21.8327C11.219 22.0061 10.6135 22.0532 10.0414 21.8427C8.86222 21.4424 8.05561 20.1505 8.31768 18.9069L8.79577 15.8471C8.81399 15.7132 8.77466 15.6393 8.73987 15.5999C8.69953 15.5542 8.63353 15.5192 8.54688 15.5192H4.68936C3.77038 15.5192 2.96054 15.1465 2.46762 14.4775C1.97304 13.8063 1.86416 12.9263 2.17262 12.0544L4.47683 5.04576C4.67533 4.28365 5.17446 3.65331 5.76909 3.21821Z" fill="#E5666D"/>
<path fill-rule="evenodd" clip-rule="evenodd" d="M17.4035 5.22545C17.3083 5.31332 17.1781 5.52287 17.1781 6.11644V15.5674C17.1781 16.1609 17.3083 16.3705 17.4035 16.4584C17.5129 16.5594 17.7639 16.6764 18.3836 16.6764H19.348C19.9676 16.6764 20.2186 16.5594 20.328 16.4584C20.4232 16.3705 20.5534 16.1609 20.5534 15.5674V6.11644C20.5534 5.52287 20.4232 5.31332 20.328 5.22545C20.2186 5.12445 19.9676 5.0074 19.348 5.0074H18.3836C17.7639 5.0074 17.5129 5.12445 17.4035 5.22545ZM16.4223 4.1625C16.9397 3.68487 17.6531 3.56083 18.3836 3.56083H19.348C20.0785 3.56083 20.7918 3.68487 21.3092 4.1625C21.8409 4.65325 22 5.35987 22 6.11644V15.5674C22 16.3239 21.8409 17.0306 21.3092 17.5213C20.7918 17.9989 20.0785 18.123 19.348 18.123H18.3836C17.6531 18.123 16.9397 17.9989 16.4223 17.5213C15.8906 17.0306 15.7315 16.3239 15.7315 15.5674V6.11644C15.7315 5.35987 15.8906 4.65325 16.4223 4.1625Z" fill="#E5666D"/>
</svg>
