<svg width="20" height="20" viewBox="0 0 20 20" fill="none" xmlns="http://www.w3.org/2000/svg">
<path d="M2.85359 5C2.55192 5 2.25024 5.11115 2.01208 5.34931C1.55164 5.80975 1.55164 6.57187 2.01208 7.03232L7.09287 12.1131C7.34691 12.3671 7.68033 12.4942 8.04551 12.4624C8.39482 12.4306 8.71236 12.2401 8.91877 11.9384L10.6494 9.33455L16.2859 14.971C16.7464 15.4315 17.5085 15.4315 17.9689 14.971C18.4294 14.5106 18.4294 13.7485 17.9689 13.288L11.3004 6.6195C11.0463 6.36547 10.7129 6.23845 10.3477 6.2702C9.99844 6.30196 9.68089 6.49249 9.47448 6.79416L7.74384 9.39806L3.69509 5.34931C3.45693 5.11115 3.15526 5 2.85359 5Z" fill="#E5666D"/>
<path d="M17.1426 9.76315C16.4916 9.76315 15.9518 10.303 15.9518 10.954V12.9386H13.9671C13.3161 12.9386 12.7763 13.4785 12.7763 14.1294C12.7763 14.7804 13.3161 15.3203 13.9671 15.3203H17.1426C17.7936 15.3203 18.3334 14.7804 18.3334 14.1294V10.954C18.3334 10.303 17.7936 9.76315 17.1426 9.76315Z" fill="#E5666D"/>
</svg>
