<svg width="24" height="24" viewBox="0 0 24 24" fill="none" xmlns="http://www.w3.org/2000/svg">
<path d="M6.08576 18.9705C5.51363 18.9705 4.97901 18.7736 4.59446 18.4078C4.10675 17.9482 3.87227 17.2541 3.95668 16.5038L4.30371 13.4649C4.36936 12.8928 4.71639 12.1331 5.1197 11.7204L12.82 3.56989C14.7428 1.5346 16.7499 1.47833 18.7852 3.40106C20.8205 5.3238 20.8768 7.33095 18.954 9.36623L11.2537 17.5168C10.8598 17.9388 10.1282 18.3327 9.55606 18.4265L6.53596 18.9424C6.37651 18.9518 6.23582 18.9705 6.08576 18.9705ZM15.8307 3.39168C15.1085 3.39168 14.4801 3.84188 13.8424 4.51719L6.14203 12.6771C5.95445 12.8741 5.73873 13.343 5.70121 13.615L5.35418 16.6539C5.31666 16.9634 5.3917 17.2166 5.56052 17.3761C5.72935 17.5355 5.98259 17.5918 6.2921 17.5449L9.3122 17.029C9.5842 16.9821 10.0344 16.7383 10.222 16.5413L17.9223 8.3908C19.0853 7.15274 19.5074 6.00848 17.8098 4.41401C17.0594 3.69182 16.4123 3.39168 15.8307 3.39168Z" fill="#2D2A2B"/>
<path d="M17.1532 10.9326C17.1345 10.9326 17.1063 10.9326 17.0876 10.9326C14.1612 10.6418 11.8071 8.41893 11.3569 5.51138C11.3006 5.12683 11.5632 4.77042 11.9478 4.70477C12.3323 4.64849 12.6887 4.91111 12.7544 5.29566C13.1108 7.56543 14.9491 9.30996 17.2376 9.53506C17.6222 9.57258 17.9036 9.91961 17.866 10.3042C17.8191 10.6606 17.5096 10.9326 17.1532 10.9326Z" fill="#2D2A2B"/>
<path d="M20.586 22H3.70344C3.31889 22 3 21.6811 3 21.2966C3 20.912 3.31889 20.5931 3.70344 20.5931H20.586C20.9705 20.5931 21.2894 20.912 21.2894 21.2966C21.2894 21.6811 20.9705 22 20.586 22Z" fill="#2D2A2B"/>
</svg>
