<svg width="28" height="28" viewBox="0 0 28 28" fill="none" xmlns="http://www.w3.org/2000/svg">
<path d="M19.4264 23.5775H8.57365C4.61241 23.5775 2.33334 21.2985 2.33334 17.3372V9.74031C2.33334 5.77907 4.61241 3.5 8.57365 3.5H19.4264C23.3876 3.5 25.6667 5.77907 25.6667 9.74031V17.3372C25.6667 21.2985 23.3876 23.5775 19.4264 23.5775ZM8.57365 5.12791C5.46978 5.12791 3.96125 6.63643 3.96125 9.74031V17.3372C3.96125 20.4411 5.46978 21.9496 8.57365 21.9496H19.4264C22.5302 21.9496 24.0388 20.4411 24.0388 17.3372V9.74031C24.0388 6.63643 22.5302 5.12791 19.4264 5.12791H8.57365Z" fill="#25A79C"/>
<path d="M13.9998 14.4829C13.0881 14.4829 12.1657 14.2007 11.4602 13.6256L8.06333 10.9124C7.71605 10.6302 7.65094 10.1201 7.93311 9.77283C8.21528 9.42555 8.72536 9.36044 9.07264 9.64261L12.4695 12.3558C13.2943 13.0178 14.6943 13.0178 15.5191 12.3558L18.916 9.64261C19.2633 9.36044 19.7843 9.41469 20.0556 9.77283C20.3378 10.1201 20.2835 10.6411 19.9254 10.9124L16.5285 13.6256C15.8339 14.2007 14.9114 14.4829 13.9998 14.4829Z" fill="#25A79C"/>
</svg>
