<svg width="32" height="32" viewBox="0 0 32 32" fill="none" xmlns="http://www.w3.org/2000/svg">
<path fill-rule="evenodd" clip-rule="evenodd" d="M16 4.52712C9.66725 4.52712 4.52714 9.66723 4.52714 16C4.52714 22.3328 9.66725 27.4729 16 27.4729C22.3328 27.4729 27.4729 22.3328 27.4729 16C27.4729 15.4862 27.8894 15.0698 28.4031 15.0698C28.9169 15.0698 29.3333 15.4862 29.3333 16C29.3333 23.3603 23.3603 29.3333 16 29.3333C8.63974 29.3333 2.66667 23.3603 2.66667 16C2.66667 8.63973 8.63974 2.66666 16 2.66666C16.5138 2.66666 16.9302 3.08314 16.9302 3.59689C16.9302 4.11064 16.5138 4.52712 16 4.52712Z" fill="#C89451"/>
<path fill-rule="evenodd" clip-rule="evenodd" d="M22.5116 3.59689C22.5116 3.08314 22.9281 2.66666 23.4419 2.66666H28.4031C28.9169 2.66666 29.3333 3.08314 29.3333 3.59689V8.55813C29.3333 9.07188 28.9169 9.48836 28.4031 9.48836C27.8894 9.48836 27.4729 9.07188 27.4729 8.55813V4.52712H23.4419C22.9281 4.52712 22.5116 4.11064 22.5116 3.59689Z" fill="#C89451"/>
<path fill-rule="evenodd" clip-rule="evenodd" d="M29.0609 2.93912C29.4242 3.30239 29.4242 3.89138 29.0609 4.25466L22.8593 10.4562C22.4961 10.8195 21.9071 10.8195 21.5438 10.4562C21.1805 10.0929 21.1805 9.50394 21.5438 9.14067L27.7453 2.93912C28.1086 2.57584 28.6976 2.57584 29.0609 2.93912Z" fill="#C89451"/>
<path d="M11.0388 12.6427H16.8938V14.0921C16.8938 14.1887 16.8938 14.2853 16.8938 14.3626H11.0388V15.9473H16.8026C16.5107 17.7638 15.4711 17.9184 11.8048 17.9184V20.5659C11.8048 23.1555 13.1181 24.6822 15.5987 24.6822C18.0246 24.6822 19.3744 23.3681 19.4109 20.7399H17.4957C17.4957 22.0733 17.0032 22.9622 15.6352 22.9622C14.176 22.9622 13.7565 21.9573 13.7565 20.6626V19.4451C16.9667 19.4451 18.3347 18.5175 18.736 15.9473H20.9612V14.3626H18.8454C18.8454 14.2853 18.8454 14.1887 18.8454 14.0921V12.6427H20.9612V11.0388H11.0388V12.6427Z" fill="#C89451"/>
</svg>
