<svg width="24" height="24" viewBox="0 0 24 24" fill="none" xmlns="http://www.w3.org/2000/svg">
<path d="M14.7907 22H9.2093C4.15814 22 2 19.8419 2 14.7907V9.2093C2 4.15814 4.15814 2 9.2093 2H14.7907C19.8419 2 22 4.15814 22 9.2093V14.7907C22 19.8419 19.8419 22 14.7907 22ZM9.2093 3.39535C4.92093 3.39535 3.39535 4.92093 3.39535 9.2093V14.7907C3.39535 19.0791 4.92093 20.6047 9.2093 20.6047H14.7907C19.0791 20.6047 20.6047 19.0791 20.6047 14.7907V9.2093C20.6047 4.92093 19.0791 3.39535 14.7907 3.39535H9.2093Z" fill="#6C757D"/>
<path d="M11.9999 15.0326C11.8232 15.0326 11.6465 14.9675 11.5069 14.8279L8.71623 12.0372C8.44646 11.7675 8.44646 11.3209 8.71623 11.0512C8.98599 10.7814 9.4325 10.7814 9.70227 11.0512L11.9999 13.3488L14.2976 11.0512C14.5674 10.7814 15.0139 10.7814 15.2837 11.0512C15.5534 11.3209 15.5534 11.7675 15.2837 12.0372L12.493 14.8279C12.3534 14.9675 12.1767 15.0326 11.9999 15.0326Z" fill="#6C757D"/>
<path d="M11.9999 15.0326C11.6185 15.0326 11.3023 14.7163 11.3023 14.3349V6.89303C11.3023 6.51164 11.6186 6.19536 12 6.19536C12.3814 6.19536 12.6977 6.51164 12.6977 6.89303V14.3349C12.6977 14.7256 12.3813 15.0326 11.9999 15.0326Z" fill="#6C757D"/>
<path d="M11.9999 17.7954C10.0372 17.7954 8.06507 17.4791 6.1953 16.8559C5.83251 16.7349 5.63716 16.3349 5.75809 15.9721C5.87902 15.6093 6.26971 15.4047 6.64181 15.5349C10.1023 16.6884 13.9069 16.6884 17.3674 15.5349C17.7302 15.414 18.1302 15.6093 18.2511 15.9721C18.372 16.3349 18.1767 16.7349 17.8139 16.8559C15.9348 17.4884 13.9627 17.7954 11.9999 17.7954Z" fill="#6C757D"/>
</svg>
