<svg width="29" height="28" viewBox="0 0 29 28" fill="none" xmlns="http://www.w3.org/2000/svg">
<path d="M10.1589 24.7223C9.85504 24.7223 9.54029 24.6464 9.25812 24.4945C8.63952 24.1689 8.25969 23.5177 8.25969 22.8231V21.2821C4.98217 20.9457 2.83334 18.5363 2.83334 15.0851V8.57356C2.83334 4.84023 5.34031 2.33325 9.07365 2.33325H19.9264C23.6597 2.33325 26.1667 4.84023 26.1667 8.57356V15.0851C26.1667 18.8185 23.6597 21.3254 19.9264 21.3254H15.8349L11.2116 24.4077C10.8969 24.6139 10.5279 24.7223 10.1589 24.7223ZM9.07365 3.9503C6.27365 3.9503 4.46124 5.7627 4.46124 8.5627V15.0744C4.46124 17.8744 6.27365 19.6868 9.07365 19.6868C9.51861 19.6868 9.8876 20.0558 9.8876 20.5007V22.8124C9.8876 22.9535 9.97443 23.0186 10.0287 23.0511C10.083 23.0837 10.1915 23.1162 10.3109 23.0402L15.1403 19.8279C15.2706 19.7411 15.4333 19.6868 15.5961 19.6868H19.9372C22.7372 19.6868 24.5496 17.8744 24.5496 15.0744V8.5627C24.5496 5.7627 22.7372 3.9503 19.9372 3.9503H9.07365Z" fill="#25A79C"/>
<path d="M14.4998 13.6418C14.0548 13.6418 13.6858 13.2728 13.6858 12.8279V12.6C13.6858 11.3411 14.6083 10.7225 14.9556 10.4837C15.3571 10.2124 15.4874 10.0279 15.4874 9.74574C15.4874 9.2031 15.0424 8.75811 14.4998 8.75811C13.9572 8.75811 13.5122 9.2031 13.5122 9.74574C13.5122 10.1907 13.1432 10.5597 12.6983 10.5597C12.2533 10.5597 11.8843 10.1907 11.8843 9.74574C11.8843 8.30233 13.0564 7.1302 14.4998 7.1302C15.9432 7.1302 17.1153 8.30233 17.1153 9.74574C17.1153 10.9829 16.2037 11.6015 15.8673 11.8294C15.444 12.1116 15.3138 12.2961 15.3138 12.6V12.8279C15.3138 13.2837 14.9448 13.6418 14.4998 13.6418Z" fill="#25A79C"/>
<path d="M14.5 16.3441C14.0442 16.3441 13.686 15.9751 13.686 15.5302C13.686 15.0852 14.055 14.7162 14.5 14.7162C14.945 14.7162 15.314 15.0852 15.314 15.5302C15.314 15.9751 14.9558 16.3441 14.5 16.3441Z" fill="#25A79C"/>
</svg>
