<svg width="29" height="28" viewBox="0 0 29 28" fill="none" xmlns="http://www.w3.org/2000/svg">
<path fill-rule="evenodd" clip-rule="evenodd" d="M2.83334 6.48195C2.83334 4.71779 4.28943 3.3631 6.05839 3.51106C8.46618 3.70629 12.0367 4.89639 14.0781 6.16736L14.3535 6.33258C14.3563 6.33389 14.3678 6.33916 14.3898 6.34466C14.4194 6.35202 14.4575 6.35714 14.5 6.35714C14.5425 6.35714 14.5806 6.35202 14.6102 6.34466C14.6311 6.33944 14.6425 6.33444 14.646 6.33282L14.8262 6.21623C16.8679 4.93156 20.4547 3.72856 22.863 3.52213C22.8862 3.52015 22.9094 3.51916 22.9326 3.51916H22.966C24.7115 3.39247 26.1667 4.72186 26.1667 6.4928V19.592C26.1667 21.038 25.0208 22.3666 23.5653 22.5485L23.5623 22.5489L23.2088 22.5917C20.9455 22.8938 17.4038 24.0637 15.4088 25.1637C15.1146 25.331 14.7808 25.3901 14.4932 25.3901C14.2075 25.3901 13.8815 25.3318 13.5912 25.1756L13.5608 25.1604C13.5519 25.1559 13.543 25.1513 13.5343 25.1465C11.5379 24.0547 7.99807 22.8925 5.74257 22.5911L5.73917 22.5906L5.42919 22.5478C3.97633 22.3632 2.83334 21.0362 2.83334 19.592V6.48195ZM5.92332 5.13335C5.1099 5.065 4.46124 5.66357 4.46124 6.48195V19.592C4.46124 20.2298 5.00838 20.8547 5.63662 20.9332L5.64689 20.9345L5.95821 20.9775L5.95996 20.9777C8.40952 21.3054 12.1295 22.5261 14.302 23.7109L14.3322 23.726C14.3423 23.7311 14.3523 23.7363 14.3622 23.7418C14.3622 23.7418 14.3727 23.7467 14.3957 23.752C14.4223 23.758 14.4562 23.7622 14.4932 23.7622C14.5304 23.7622 14.5625 23.758 14.5861 23.7526C14.5983 23.7498 14.6054 23.7472 14.6082 23.7462L14.6166 23.7413C16.7887 22.5422 20.5322 21.3056 22.9989 20.9774L23.0083 20.9762L23.3634 20.9332L23.3646 20.933C23.9923 20.8538 24.5388 20.2293 24.5388 19.592V6.4928C24.5388 5.67143 23.8871 5.07519 23.0658 5.14421C23.0432 5.14611 23.0204 5.14707 22.9977 5.14707H22.9682C20.819 5.33994 17.5107 6.45205 15.6974 7.59145L15.5045 7.71628C15.188 7.91275 14.8205 7.98505 14.5 7.98505C14.1816 7.98505 13.8169 7.91356 13.5017 7.71995L13.2227 7.55256C11.3999 6.41586 8.07376 5.30744 5.9258 5.13356L5.92332 5.13335Z" fill="#25A79C"/>
<path fill-rule="evenodd" clip-rule="evenodd" d="M14.5 6.56877C14.9495 6.56877 15.314 6.93319 15.314 7.38272V23.6618C15.314 24.1113 14.9495 24.4757 14.5 24.4757C14.0505 24.4757 13.686 24.1113 13.686 23.6618V7.38272C13.686 6.93319 14.0505 6.56877 14.5 6.56877Z" fill="#25A79C"/>
<path fill-rule="evenodd" clip-rule="evenodd" d="M6.63179 10.6385C6.63179 10.189 6.9962 9.82458 7.44574 9.82458H9.8876C10.3371 9.82458 10.7016 10.189 10.7016 10.6385C10.7016 11.0881 10.3371 11.4525 9.8876 11.4525H7.44574C6.9962 11.4525 6.63179 11.0881 6.63179 10.6385Z" fill="#25A79C"/>
<path fill-rule="evenodd" clip-rule="evenodd" d="M6.63179 13.8944C6.63179 13.4448 6.9962 13.0804 7.44574 13.0804H10.7016C11.1511 13.0804 11.5155 13.4448 11.5155 13.8944C11.5155 14.3439 11.1511 14.7083 10.7016 14.7083H7.44574C6.9962 14.7083 6.63179 14.3439 6.63179 13.8944Z" fill="#25A79C"/>
</svg>
