<svg width="29" height="28" viewBox="0 0 29 28" fill="none" xmlns="http://www.w3.org/2000/svg">
<path d="M17.7558 25.6666H11.2442C5.35117 25.6666 2.83334 23.1488 2.83334 17.2557V10.7441C2.83334 4.85108 5.35117 2.33325 11.2442 2.33325H16.6705C17.1155 2.33325 17.4845 2.70224 17.4845 3.14721C17.4845 3.59217 17.1155 3.96116 16.6705 3.96116H11.2442C6.24109 3.96116 4.46124 5.741 4.46124 10.7441V17.2557C4.46124 22.2588 6.24109 24.0387 11.2442 24.0387H17.7558C22.7589 24.0387 24.5388 22.2588 24.5388 17.2557V11.8294C24.5388 11.3844 24.9078 11.0154 25.3527 11.0154C25.7977 11.0154 26.1667 11.3844 26.1667 11.8294V17.2557C26.1667 23.1488 23.6488 25.6666 17.7558 25.6666Z" fill="#25A79C"/>
<path d="M25.3527 12.6433H21.0116C17.3 12.6433 15.8566 11.1999 15.8566 7.48829V3.14721C15.8566 2.82162 16.0519 2.51775 16.3558 2.39837C16.6597 2.26814 17.007 2.3441 17.2457 2.57201L25.9279 11.2542C26.1558 11.4821 26.2318 11.8402 26.1016 12.1441C25.9713 12.448 25.6783 12.6433 25.3527 12.6433ZM17.4845 5.11155V7.48829C17.4845 10.2883 18.2116 11.0154 21.0116 11.0154H23.3884L17.4845 5.11155Z" fill="#25A79C"/>
<path d="M15.5853 15.8991H9.07365C8.62868 15.8991 8.25969 15.5302 8.25969 15.0852C8.25969 14.6402 8.62868 14.2712 9.07365 14.2712H15.5853C16.0302 14.2712 16.3992 14.6402 16.3992 15.0852C16.3992 15.5302 16.0302 15.8991 15.5853 15.8991Z" fill="#25A79C"/>
<path d="M13.4147 20.2402H9.07365C8.62868 20.2402 8.25969 19.8712 8.25969 19.4263C8.25969 18.9813 8.62868 18.6123 9.07365 18.6123H13.4147C13.8597 18.6123 14.2287 18.9813 14.2287 19.4263C14.2287 19.8712 13.8597 20.2402 13.4147 20.2402Z" fill="#25A79C"/>
</svg>
