<svg width="24" height="25" viewBox="0 0 24 25" fill="none" xmlns="http://www.w3.org/2000/svg">
<path fill-rule="evenodd" clip-rule="evenodd" d="M13.9585 2.63976C15.1378 3.04005 15.9444 4.33194 15.6823 5.5756L15.2042 8.6354C15.186 8.76933 15.2253 8.84318 15.2601 8.8826C15.3005 8.92832 15.3665 8.96333 15.4531 8.96333H19.3106C20.2296 8.96333 21.0395 9.33601 21.5324 10.005C22.027 10.6762 22.1358 11.5562 21.8274 12.4281L19.5232 19.4367C19.3247 20.1988 18.8255 20.8292 18.2309 21.2643C17.6297 21.7042 16.8802 21.9825 16.1282 21.9825H12.4635C12.1044 21.9825 11.6759 21.9242 11.2763 21.81C10.9091 21.7051 10.4759 21.5277 10.1573 21.2284L7.19885 18.938L8.08441 17.7941L11.1102 20.1367L11.1427 20.1691C11.2069 20.2334 11.3805 20.3353 11.6737 20.4191C11.9493 20.4978 12.2441 20.5359 12.4635 20.5359H16.1282C16.5335 20.5359 16.9894 20.3802 17.3767 20.0969C17.7635 19.8139 18.031 19.4415 18.1268 19.0586L18.1331 19.0331L20.4587 11.9594L20.4618 11.9507C20.6315 11.4755 20.5466 11.1057 20.3678 10.8631C20.1857 10.6159 19.8382 10.4099 19.3106 10.4099H15.4531C14.4469 10.4099 13.6123 9.55025 13.7727 8.42707L13.7741 8.41769L14.2599 5.30892L14.2649 5.28644C14.3716 4.80616 14.0305 4.18854 13.4885 4.00787L13.4758 4.00364L13.4633 3.99894C13.2675 3.92553 13.0103 3.92722 12.7469 4.01776C12.4786 4.10998 12.2851 4.2665 12.1974 4.39798L12.1959 4.40025L8.24192 10.283L7.04134 9.47602L10.9938 3.59556L10.9946 3.59428C11.2928 3.14779 11.7739 2.82258 12.2766 2.64976C12.781 2.47638 13.3865 2.42925 13.9585 2.63976Z" fill="#25A79C"/>
<path fill-rule="evenodd" clip-rule="evenodd" d="M3.67196 8.02412C3.57676 8.112 3.44657 8.32155 3.44657 8.91511V18.3661C3.44657 18.9596 3.57676 19.1692 3.67196 19.257C3.78137 19.358 4.03242 19.4751 4.65205 19.4751H5.61643C6.23606 19.4751 6.48711 19.358 6.59652 19.257C6.69172 19.1692 6.82191 18.9596 6.82191 18.3661V8.91511C6.82191 8.32155 6.69172 8.112 6.59652 8.02412C6.48711 7.92313 6.23606 7.80608 5.61643 7.80608H4.65205C4.03242 7.80608 3.78137 7.92313 3.67196 8.02412ZM2.69078 6.96118C3.20821 6.48355 3.92155 6.3595 4.65205 6.3595H5.61643C6.34693 6.3595 7.06027 6.48355 7.5777 6.96118C8.10935 7.45193 8.26848 8.15855 8.26848 8.91511V18.3661C8.26848 19.1226 8.10935 19.8292 7.5777 20.32C7.06027 20.7976 6.34693 20.9217 5.61643 20.9217H4.65205C3.92155 20.9217 3.20821 20.7976 2.69078 20.32C2.15913 19.8292 2 19.1226 2 18.3661V8.91511C2 8.15855 2.15913 7.45193 2.69078 6.96118Z" fill="#25A79C"/>
</svg>
