<svg width="25" height="24" viewBox="0 0 25 24" fill="none" xmlns="http://www.w3.org/2000/svg">
<path d="M18.2606 15.816C18.0464 15.816 17.8321 15.737 17.663 15.5679C17.336 15.2409 17.336 14.6997 17.663 14.3727L19.9519 12.0838L17.663 9.79482C17.336 9.46783 17.336 8.9266 17.663 8.59961C17.99 8.27262 18.5312 8.27262 18.8582 8.59961L21.7447 11.4862C22.0717 11.8131 22.0717 12.3544 21.7447 12.6814L18.8582 15.5679C18.6891 15.737 18.4748 15.816 18.2606 15.816Z" fill="#6C757D"/>
<path d="M21.0682 12.9294H9.60098C9.13869 12.9294 8.75532 12.5461 8.75532 12.0838C8.75532 11.6215 9.13869 11.2381 9.60098 11.2381H21.0682C21.5305 11.2381 21.9139 11.6215 21.9139 12.0838C21.9139 12.5461 21.5305 12.9294 21.0682 12.9294Z" fill="#6C757D"/>
<path d="M11.8561 21.8822C6.04919 21.8822 1.98999 17.823 1.98999 12.0161C1.98999 6.2092 6.04919 2.15 11.8561 2.15C12.3184 2.15 12.7018 2.53337 12.7018 2.99567C12.7018 3.45796 12.3184 3.84133 11.8561 3.84133C7.04143 3.84133 3.68132 7.20144 3.68132 12.0161C3.68132 16.8308 7.04143 20.1909 11.8561 20.1909C12.3184 20.1909 12.7018 20.5742 12.7018 21.0365C12.7018 21.4988 12.3184 21.8822 11.8561 21.8822Z" fill="#6C757D"/>
</svg>
