<svg width="20" height="20" viewBox="0 0 20 20" fill="none" xmlns="http://www.w3.org/2000/svg">
<path fill-rule="evenodd" clip-rule="evenodd" d="M12.0128 2.16759C11.6237 1.46484 10.8748 0.991669 10.0167 0.991669C9.15979 0.991669 8.41176 1.46354 8.02219 2.1647C5.90135 2.97066 4.39169 5.0236 4.39169 7.425V9.83334C4.39169 10.0122 4.35121 10.2739 4.27383 10.5526C4.19669 10.8305 4.09673 11.0755 4.00548 11.2289C4.00527 11.2293 4.00506 11.2296 4.00484 11.23L3.04792 12.8193C2.66372 13.4578 2.58345 14.1743 2.81912 14.8108C3.05451 15.4465 3.58097 15.9377 4.28298 16.1753L4.2853 16.1761C5.19246 16.4792 6.11709 16.7084 7.05068 16.8637C7.20647 17.3322 7.46961 17.7535 7.80808 18.0919C8.37014 18.654 9.16045 19.0083 10.0167 19.0083C11.3954 19.0083 12.5715 18.1059 12.9841 16.8621C13.914 16.7069 14.8351 16.4783 15.7388 16.1764C17.129 15.7162 17.7322 14.0778 16.9776 12.8201L16.0221 11.2331C15.9329 11.077 15.8349 10.8311 15.759 10.5545C15.6822 10.2745 15.6417 10.0124 15.6417 9.83334V7.425C15.6417 5.03192 14.1294 2.97681 12.0128 2.16759ZM8.69457 3.25396C9.31227 3.08112 9.97763 3.03228 10.6808 3.12018L10.6831 3.12046C10.8886 3.14536 11.0917 3.18687 11.2931 3.24135C13.0811 3.79138 14.3917 5.46363 14.3917 7.425V9.83334C14.3917 10.1626 14.4595 10.5422 14.5535 10.8851C14.6477 11.2287 14.7819 11.5849 14.942 11.8623L15.9058 13.4632C15.9057 13.4631 15.9058 13.4634 15.9058 13.4632C16.2505 14.0385 15.9711 14.7831 15.3455 14.9899L15.3436 14.9905C11.8809 16.1475 8.14529 16.1476 4.68246 14.9909C4.30192 14.8617 4.08293 14.6241 3.99134 14.3767C3.89993 14.1299 3.91141 13.8088 4.11879 13.4641C4.11876 13.4641 4.11882 13.464 4.11879 13.4641L5.07712 11.8724L5.07853 11.87C5.24544 11.5901 5.38269 11.2313 5.47829 10.887C5.57383 10.5428 5.64169 10.1628 5.64169 9.83334V7.425C5.64169 5.4725 6.92602 3.81545 8.69457 3.25396ZM11.4822 17.0484C10.5065 17.1281 9.52599 17.1283 8.55025 17.049C8.59454 17.1048 8.64187 17.158 8.69196 17.2081C9.0299 17.546 9.50625 17.7583 10.0167 17.7583C10.6076 17.7583 11.1376 17.4801 11.4822 17.0484Z" fill="#2D2A2B"/>
</svg>
