<svg width="24" height="24" viewBox="0 0 24 24" fill="none" xmlns="http://www.w3.org/2000/svg">
<path fill-rule="evenodd" clip-rule="evenodd" d="M11.6465 9.09767C11.6465 8.71236 11.9589 8.4 12.3442 8.4H17.2279C17.6132 8.4 17.9256 8.71236 17.9256 9.09767C17.9256 9.48299 17.6132 9.79535 17.2279 9.79535H12.3442C11.9589 9.79535 11.6465 9.48299 11.6465 9.09767Z" fill="#6C757D"/>
<path fill-rule="evenodd" clip-rule="evenodd" d="M10.0561 7.209C10.3286 7.48145 10.3286 7.9232 10.0561 8.19566L7.9631 10.2887C7.69064 10.5611 7.2489 10.5611 6.97644 10.2887L6.27876 9.591C6.0063 9.31855 6.0063 8.8768 6.27876 8.60434C6.55122 8.33189 6.99296 8.33189 7.26542 8.60434L7.46977 8.80869L9.06946 7.209C9.34192 6.93654 9.78366 6.93654 10.0561 7.209Z" fill="#6C757D"/>
<path fill-rule="evenodd" clip-rule="evenodd" d="M11.6465 15.6093C11.6465 15.224 11.9589 14.9116 12.3442 14.9116H17.2279C17.6132 14.9116 17.9256 15.224 17.9256 15.6093C17.9256 15.9946 17.6132 16.307 17.2279 16.307H12.3442C11.9589 16.307 11.6465 15.9946 11.6465 15.6093Z" fill="#6C757D"/>
<path fill-rule="evenodd" clip-rule="evenodd" d="M10.0561 13.7206C10.3286 13.9931 10.3286 14.4348 10.0561 14.7073L7.9631 16.8003C7.69064 17.0728 7.2489 17.0728 6.97644 16.8003L6.27876 16.1026C6.0063 15.8302 6.0063 15.3884 6.27876 15.116C6.55122 14.8435 6.99296 14.8435 7.26542 15.116L7.46977 15.3203L9.06946 13.7206C9.34192 13.4482 9.78366 13.4482 10.0561 13.7206Z" fill="#6C757D"/>
<path fill-rule="evenodd" clip-rule="evenodd" d="M3.71597 3.71597C4.95734 2.47461 6.81491 2 9.2093 2H14.7907C17.1851 2 19.0427 2.47461 20.284 3.71597C21.5254 4.95734 22 6.81491 22 9.2093V14.7907C22 17.1851 21.5254 19.0427 20.284 20.284C19.0427 21.5254 17.1851 22 14.7907 22H9.2093C6.81491 22 4.95734 21.5254 3.71597 20.284C2.47461 19.0427 2 17.1851 2 14.7907V9.2093C2 6.81491 2.47461 4.95734 3.71597 3.71597ZM4.70263 4.70263C3.85098 5.55429 3.39535 6.95253 3.39535 9.2093V14.7907C3.39535 17.0475 3.85098 18.4457 4.70263 19.2974C5.55429 20.149 6.95253 20.6047 9.2093 20.6047H14.7907C17.0475 20.6047 18.4457 20.149 19.2974 19.2974C20.149 18.4457 20.6047 17.0475 20.6047 14.7907V9.2093C20.6047 6.95253 20.149 5.55429 19.2974 4.70263C18.4457 3.85098 17.0475 3.39535 14.7907 3.39535H9.2093C6.95253 3.39535 5.55429 3.85098 4.70263 4.70263Z" fill="#6C757D"/>
</svg>
