<svg width="24" height="24" viewBox="0 0 24 24" fill="none" xmlns="http://www.w3.org/2000/svg">
<path fill-rule="evenodd" clip-rule="evenodd" d="M17.1856 3.35855C16.5524 3.36012 16.0383 3.87489 16.0383 4.49972V10.1513H18.4565C19.0265 10.1513 19.4258 9.97377 19.6811 9.71848C19.9364 9.46319 20.1139 9.0639 20.1139 8.49383V6.30205C20.1139 5.49568 19.7849 4.7592 19.2516 4.21762C18.7244 3.69131 17.9902 3.3668 17.1856 3.35855ZM14.6797 4.49972C14.6797 3.11486 15.8124 2 17.1885 2H17.1947C18.3624 2.01071 19.4376 2.48241 20.2138 3.25862L20.2171 3.26193C20.987 4.0425 21.4724 5.11673 21.4724 6.30205V8.49383C21.4724 9.35475 21.1971 10.1238 20.6417 10.6791C20.0864 11.2344 19.3174 11.5098 18.4565 11.5098H15.359C14.9838 11.5098 14.6797 11.2057 14.6797 10.8305V4.49972Z" fill="#6897E3"/>
<path fill-rule="evenodd" clip-rule="evenodd" d="M2.95765 3.2961C3.68654 2.45205 4.80445 2 6.30205 2H17.1704C17.5455 2 17.8497 2.30412 17.8497 2.67927C17.8497 3.05442 17.5455 3.35854 17.1704 3.35854C16.5493 3.35854 16.0383 3.86955 16.0383 4.49066V19.8875C16.0383 21.1933 14.547 21.931 13.505 21.1574L13.5029 21.1558L11.947 19.9912C11.8689 19.9311 11.744 19.9346 11.6641 20.0146L10.1425 21.5361C9.52402 22.1546 8.51425 22.1546 7.89575 21.5361L7.89431 21.5347L6.39232 20.0236C6.39218 20.0235 6.39247 20.0238 6.39232 20.0236C6.30245 19.9341 6.17315 19.9298 6.08468 19.9962L4.53854 21.1535C4.53794 21.1539 4.53733 21.1544 4.53672 21.1548C3.48775 21.9473 2 21.1948 2 19.8875V6.30205C2 5.21262 2.24484 4.12153 2.95765 3.2961ZM14.953 3.35854H6.30205C5.08257 3.35854 4.38909 3.71709 3.98586 4.18403C3.56655 4.66959 3.35854 5.38989 3.35854 6.30205V19.8875C3.35854 20.0829 3.57172 20.1815 3.71818 20.0706L3.72131 20.0682L5.26956 18.9093C5.9055 18.4324 6.79075 18.5008 7.35296 19.063L7.3544 19.0644L8.85639 20.5755C8.85625 20.5754 8.85652 20.5756 8.85639 20.5755C8.94439 20.663 9.09407 20.6633 9.18188 20.5755L10.7034 19.0539C11.2563 18.5011 12.1431 18.4313 12.7712 18.9112L14.3148 20.0666C14.3151 20.0668 14.3153 20.067 14.3156 20.0672C14.469 20.1802 14.6797 20.0667 14.6797 19.8875V4.49066C14.6797 4.0835 14.7784 3.69856 14.953 3.35854Z" fill="#6897E3"/>
<path fill-rule="evenodd" clip-rule="evenodd" d="M5.62278 9.01913C5.62278 8.64398 5.9269 8.33986 6.30205 8.33986H11.7362C12.1114 8.33986 12.4155 8.64398 12.4155 9.01913C12.4155 9.39428 12.1114 9.6984 11.7362 9.6984H6.30205C5.9269 9.6984 5.62278 9.39428 5.62278 9.01913Z" fill="#6897E3"/>
<path fill-rule="evenodd" clip-rule="evenodd" d="M6.30205 12.6419C6.30205 12.2668 6.60617 11.9626 6.98132 11.9626H11.0569C11.4321 11.9626 11.7362 12.2668 11.7362 12.6419C11.7362 13.0171 11.4321 13.3212 11.0569 13.3212H6.98132C6.60617 13.3212 6.30205 13.0171 6.30205 12.6419Z" fill="#6897E3"/>
</svg>
