<svg width="32" height="32" viewBox="0 0 32 32" fill="none" xmlns="http://www.w3.org/2000/svg">
<path d="M15.6847 29.3333C9.23455 29.3333 4 24.0864 4 17.6486C4 15.329 4.68223 13.0839 5.97226 11.1488C6.25756 10.7271 6.84055 10.6031 7.26229 10.8884C7.68403 11.1737 7.80808 11.7566 7.52278 12.1784C6.44362 13.7909 5.87303 15.6888 5.87303 17.6362C5.87303 23.0568 10.2765 27.4603 15.6971 27.4603C21.1177 27.4603 25.5212 23.0568 25.5212 17.6362C25.5212 12.2156 21.1053 7.81212 15.6847 7.81212C14.5435 7.81212 13.4272 7.97338 12.3728 8.29589C11.8766 8.44474 11.3557 8.17185 11.2068 7.67568C11.058 7.17951 11.3309 6.65854 11.827 6.50969C13.0674 6.13756 14.3575 5.9391 15.6847 5.9391C22.1349 5.9391 27.3694 11.1861 27.3694 17.6238C27.3694 24.0616 22.1349 29.3333 15.6847 29.3333Z" fill="#25A79C"/>
<path d="M10.5618 8.6432C10.3509 8.6432 10.1277 8.56878 9.954 8.41993C9.55706 8.07261 9.51985 7.48962 9.85476 7.10509L13.4396 2.98691C13.7745 2.60238 14.3699 2.55276 14.7544 2.90008C15.1389 3.23499 15.1761 3.83039 14.8412 4.21492L11.2564 8.32069C11.0704 8.53157 10.8099 8.6432 10.5618 8.6432Z" fill="#25A79C"/>
<path d="M14.742 11.6946C14.5559 11.6946 14.3575 11.6326 14.1962 11.521L10.0036 8.45714C9.59427 8.15944 9.50745 7.57645 9.80515 7.16711C10.1028 6.74537 10.6858 6.65854 11.1076 6.95624L15.2878 10.0077C15.6971 10.3054 15.7964 10.8884 15.4862 11.3101C15.3126 11.5706 15.0273 11.6946 14.742 11.6946Z" fill="#25A79C"/>
<path d="M12 14.7441H16.7206V16.0189C16.7206 16.1039 16.7206 16.1889 16.7206 16.2568H12V17.6506H16.6471C16.4118 19.2484 15.5736 19.3843 12.6177 19.3843V21.7129C12.6177 23.9906 13.6765 25.3333 15.6765 25.3333C17.6324 25.3333 18.7206 24.1775 18.75 21.8659H17.2059C17.2059 23.0387 16.8088 23.8206 15.7059 23.8206C14.5294 23.8206 14.1912 22.9367 14.1912 21.7979V20.7271C16.7794 20.7271 17.8824 19.9112 18.2059 17.6506H20V16.2568H18.2941C18.2941 16.1889 18.2941 16.1039 18.2941 16.0189V14.7441H20V13.3333H12V14.7441Z" fill="#25A79C"/>
</svg>
