<svg width="24" height="24" viewBox="0 0 24 24" fill="none" xmlns="http://www.w3.org/2000/svg">
<path d="M14.7907 22H9.2093C4.15814 22 2 19.8419 2 14.7907V9.2093C2 4.15814 4.15814 2 9.2093 2H13.8605C14.2419 2 14.5581 2.31628 14.5581 2.69767C14.5581 3.07907 14.2419 3.39535 13.8605 3.39535H9.2093C4.92093 3.39535 3.39535 4.92093 3.39535 9.2093V14.7907C3.39535 19.0791 4.92093 20.6047 9.2093 20.6047H14.7907C19.0791 20.6047 20.6047 19.0791 20.6047 14.7907V10.1395C20.6047 9.75814 20.9209 9.44186 21.3023 9.44186C21.6837 9.44186 22 9.75814 22 10.1395V14.7907C22 19.8419 19.8419 22 14.7907 22Z" fill="#EEF2FF" fill-opacity="0.8"/>
<path d="M21.3023 10.8372H17.5814C14.4 10.8372 13.1628 9.6 13.1628 6.4186V2.69767C13.1628 2.4186 13.3302 2.15814 13.5907 2.05581C13.8512 1.94419 14.1488 2.0093 14.3535 2.20465L21.7953 9.64651C21.9907 9.84186 22.0558 10.1488 21.9442 10.4093C21.8326 10.6698 21.5814 10.8372 21.3023 10.8372ZM14.5581 4.3814V6.4186C14.5581 8.8186 15.1814 9.44186 17.5814 9.44186H19.6186L14.5581 4.3814Z" fill="#EEF2FF" fill-opacity="0.8"/>
<path d="M12.9302 13.6279H7.34884C6.96744 13.6279 6.65116 13.3116 6.65116 12.9302C6.65116 12.5488 6.96744 12.2326 7.34884 12.2326H12.9302C13.3116 12.2326 13.6279 12.5488 13.6279 12.9302C13.6279 13.3116 13.3116 13.6279 12.9302 13.6279Z" fill="#EEF2FF" fill-opacity="0.8"/>
<path d="M11.0698 17.3488H7.34884C6.96744 17.3488 6.65116 17.0326 6.65116 16.6512C6.65116 16.2698 6.96744 15.9535 7.34884 15.9535H11.0698C11.4512 15.9535 11.7674 16.2698 11.7674 16.6512C11.7674 17.0326 11.4512 17.3488 11.0698 17.3488Z" fill="#EEF2FF" fill-opacity="0.8"/>
</svg>
