<svg width="24" height="25" viewBox="0 0 24 25" fill="none" xmlns="http://www.w3.org/2000/svg">
<path d="M14.7907 22.5H9.2093C4.15814 22.5 2 20.3419 2 15.2907V9.7093C2 4.65814 4.15814 2.5 9.2093 2.5H13.8605C14.2419 2.5 14.5581 2.81628 14.5581 3.19767C14.5581 3.57907 14.2419 3.89535 13.8605 3.89535H9.2093C4.92093 3.89535 3.39535 5.42093 3.39535 9.7093V15.2907C3.39535 19.5791 4.92093 21.1047 9.2093 21.1047H14.7907C19.0791 21.1047 20.6047 19.5791 20.6047 15.2907V10.6395C20.6047 10.2581 20.9209 9.94186 21.3023 9.94186C21.6837 9.94186 22 10.2581 22 10.6395V15.2907C22 20.3419 19.8419 22.5 14.7907 22.5Z" fill="#6897E3"/>
<path d="M21.3023 11.3372H17.5814C14.4 11.3372 13.1628 10.1 13.1628 6.9186V3.19767C13.1628 2.9186 13.3302 2.65814 13.5907 2.55581C13.8512 2.44419 14.1488 2.5093 14.3535 2.70465L21.7953 10.1465C21.9907 10.3419 22.0558 10.6488 21.9442 10.9093C21.8326 11.1698 21.5814 11.3372 21.3023 11.3372ZM14.5581 4.8814V6.9186C14.5581 9.3186 15.1814 9.94186 17.5814 9.94186H19.6186L14.5581 4.8814Z" fill="#6897E3"/>
<path d="M12.9302 14.1279H7.34884C6.96744 14.1279 6.65116 13.8116 6.65116 13.4302C6.65116 13.0488 6.96744 12.7326 7.34884 12.7326H12.9302C13.3116 12.7326 13.6279 13.0488 13.6279 13.4302C13.6279 13.8116 13.3116 14.1279 12.9302 14.1279Z" fill="#6897E3"/>
<path d="M11.0698 17.8488H7.34884C6.96744 17.8488 6.65116 17.5326 6.65116 17.1512C6.65116 16.7698 6.96744 16.4535 7.34884 16.4535H11.0698C11.4512 16.4535 11.7674 16.7698 11.7674 17.1512C11.7674 17.5326 11.4512 17.8488 11.0698 17.8488Z" fill="#6897E3"/>
</svg>
