<svg width="32" height="32" viewBox="0 0 32 32" fill="none" xmlns="http://www.w3.org/2000/svg">
<path d="M15.9998 29.3333C8.6448 29.3333 2.6665 23.355 2.6665 16C2.6665 8.64497 8.6448 2.66667 15.9998 2.66667C23.3549 2.66667 29.3332 8.64497 29.3332 16C29.3332 23.355 23.3549 29.3333 15.9998 29.3333ZM15.9998 4.52714C9.67426 4.52714 4.52697 9.67442 4.52697 16C4.52697 22.3256 9.67426 27.4729 15.9998 27.4729C22.3254 27.4729 27.4727 22.3256 27.4727 16C27.4727 9.67442 22.3254 4.52714 15.9998 4.52714Z" fill="#25A79C"/>
<path d="M14.2386 20.4403C13.9905 20.4403 13.7549 20.3411 13.5812 20.1674L10.0712 16.6574C9.71147 16.2977 9.71147 15.7023 10.0712 15.3426C10.4308 14.983 11.0262 14.983 11.3859 15.3426L14.2386 18.1954L20.6138 11.8202C20.9735 11.4605 21.5688 11.4605 21.9285 11.8202C22.2882 12.1799 22.2882 12.7752 21.9285 13.1349L14.896 20.1674C14.7223 20.3411 14.4867 20.4403 14.2386 20.4403Z" fill="#25A79C"/>
</svg>
