<svg width="20" height="20" viewBox="0 0 20 20" fill="none" xmlns="http://www.w3.org/2000/svg">
<path d="M2.85347 15.3202C2.55179 15.3202 2.25012 15.2091 2.01196 14.9709C1.55151 14.5105 1.55151 13.7484 2.01196 13.2879L7.09274 8.20715C7.34678 7.95311 7.68021 7.82609 8.04539 7.85785C8.3947 7.8896 8.71224 8.08013 8.91865 8.3818L10.6493 10.9857L16.2858 5.34921C16.7462 4.88876 17.5084 4.88876 17.9688 5.34921C18.4292 5.80966 18.4292 6.57177 17.9688 7.03222L11.3003 13.7007C11.0462 13.9548 10.7128 14.0818 10.3476 14.0501C9.99832 14.0183 9.68077 13.8278 9.47436 13.5261L7.74372 10.9222L3.69497 14.9709C3.45681 15.2091 3.15514 15.3202 2.85347 15.3202Z" fill="#25A79C"/>
<path d="M17.1425 10.5571C16.4915 10.5571 15.9517 10.0173 15.9517 9.3663V7.38162H13.967C13.316 7.38162 12.7762 6.84178 12.7762 6.19081C12.7762 5.53983 13.316 5 13.967 5H17.1425C17.7935 5 18.3333 5.53983 18.3333 6.19081V9.3663C18.3333 10.0173 17.7935 10.5571 17.1425 10.5571Z" fill="#25A79C"/>
</svg>
