<svg width="24" height="24" viewBox="0 0 24 24" fill="none" xmlns="http://www.w3.org/2000/svg">
<path d="M9.09859 11.7371C9.07042 11.7371 9.05164 11.7371 9.02347 11.7371C8.97653 11.7277 8.9108 11.7277 8.85446 11.7371C6.13145 11.6526 4.07512 9.51174 4.07512 6.87324C4.07512 4.18779 6.26291 2 8.94836 2C11.6338 2 13.8216 4.18779 13.8216 6.87324C13.8122 9.51174 11.7465 11.6526 9.12676 11.7371C9.11737 11.7371 9.10798 11.7371 9.09859 11.7371ZM8.94836 3.40845C7.04225 3.40845 5.48357 4.96714 5.48357 6.87324C5.48357 8.75117 6.94836 10.2629 8.8169 10.3286C8.87324 10.3192 8.99531 10.3192 9.11737 10.3286C10.9577 10.2441 12.4038 8.73239 12.4131 6.87324C12.4131 4.96714 10.8545 3.40845 8.94836 3.40845Z" fill="#EEF2FF" fill-opacity="0.8"/>
<path d="M16.0282 11.8592C16 11.8592 15.9718 11.8592 15.9437 11.8498C15.5587 11.8873 15.1643 11.615 15.1268 11.23C15.0892 10.8451 15.3239 10.4977 15.7089 10.4507C15.8216 10.4413 15.9437 10.4413 16.0469 10.4413C17.4178 10.3662 18.4883 9.23944 18.4883 7.85915C18.4883 6.43192 17.3333 5.277 15.9061 5.277C15.5211 5.28638 15.2019 4.96714 15.2019 4.58216C15.2019 4.19718 15.5211 3.87793 15.9061 3.87793C18.1033 3.87793 19.8967 5.67136 19.8967 7.86854C19.8967 10.0282 18.2066 11.7746 16.0563 11.8592C16.0469 11.8592 16.0376 11.8592 16.0282 11.8592Z" fill="#EEF2FF" fill-opacity="0.8"/>
<path d="M9.10798 22C7.26761 22 5.41784 21.5305 4.01878 20.5915C2.71362 19.7277 2 18.5446 2 17.2582C2 15.9718 2.71362 14.7793 4.01878 13.9061C6.83568 12.0376 11.3991 12.0376 14.1972 13.9061C15.493 14.77 16.216 15.9531 16.216 17.2394C16.216 18.5258 15.5023 19.7183 14.1972 20.5915C12.7887 21.5305 10.9484 22 9.10798 22ZM4.79812 15.0892C3.89671 15.6901 3.40845 16.4601 3.40845 17.2676C3.40845 18.0657 3.9061 18.8357 4.79812 19.4272C7.13615 20.9953 11.0798 20.9953 13.4178 19.4272C14.3192 18.8263 14.8075 18.0563 14.8075 17.2488C14.8075 16.4507 14.3099 15.6808 13.4178 15.0892C11.0798 13.5305 7.13615 13.5305 4.79812 15.0892Z" fill="#EEF2FF" fill-opacity="0.8"/>
<path d="M17.7183 20.3099C17.3897 20.3099 17.0986 20.0845 17.0329 19.7465C16.9577 19.3615 17.2019 18.9953 17.5775 18.9108C18.169 18.7887 18.7136 18.554 19.1362 18.2254C19.6714 17.8216 19.9624 17.3146 19.9624 16.7793C19.9624 16.2441 19.6714 15.7371 19.1455 15.3427C18.7324 15.0235 18.216 14.7981 17.6056 14.6573C17.23 14.5728 16.9859 14.1972 17.0704 13.8122C17.1549 13.4366 17.5305 13.1925 17.9155 13.277C18.723 13.4554 19.4272 13.7746 20 14.216C20.8732 14.8732 21.3709 15.8028 21.3709 16.7793C21.3709 17.7559 20.8638 18.6854 19.9906 19.3521C19.4085 19.8028 18.6761 20.1315 17.8685 20.2911C17.8122 20.3099 17.7653 20.3099 17.7183 20.3099Z" fill="#EEF2FF" fill-opacity="0.8"/>
</svg>
