<svg width="24" height="24" viewBox="0 0 24 24" fill="none" xmlns="http://www.w3.org/2000/svg">
<path d="M12.1116 13.4233C12.093 13.4233 12.0651 13.4233 12.0465 13.4233C12.0186 13.4233 11.9814 13.4233 11.9535 13.4233C9.84186 13.3581 8.26047 11.7116 8.26047 9.68372C8.26047 7.61861 9.94419 5.93488 12.0093 5.93488C14.0744 5.93488 15.7581 7.61861 15.7581 9.68372C15.7488 11.7209 14.1581 13.3581 12.1395 13.4233C12.1209 13.4233 12.1209 13.4233 12.1116 13.4233ZM12 7.32093C10.6977 7.32093 9.64651 8.3814 9.64651 9.67442C9.64651 10.9488 10.6419 11.9814 11.907 12.0279C11.9349 12.0186 12.0279 12.0186 12.1209 12.0279C13.3674 11.9628 14.3442 10.9395 14.3535 9.67442C14.3535 8.3814 13.3023 7.32093 12 7.32093Z" fill="#6C757D"/>
<path d="M12 22C9.49767 22 7.10698 21.0698 5.25581 19.3767C5.08837 19.2279 5.01395 19.0047 5.03256 18.7907C5.15349 17.6837 5.84186 16.6512 6.98605 15.8884C9.75814 14.0465 14.2512 14.0465 17.014 15.8884C18.1581 16.6605 18.8465 17.6837 18.9674 18.7907C18.9953 19.014 18.9116 19.2279 18.7442 19.3767C16.893 21.0698 14.5023 22 12 22ZM6.49302 18.6047C8.03721 19.8977 9.9814 20.6047 12 20.6047C14.0186 20.6047 15.9628 19.8977 17.507 18.6047C17.3395 18.0372 16.893 17.4884 16.2326 17.0419C13.9442 15.5163 10.0651 15.5163 7.75814 17.0419C7.09767 17.4884 6.66047 18.0372 6.49302 18.6047Z" fill="#6C757D"/>
<path d="M12 22C6.48372 22 2 17.5163 2 12C2 6.48372 6.48372 2 12 2C17.5163 2 22 6.48372 22 12C22 17.5163 17.5163 22 12 22ZM12 3.39535C7.25581 3.39535 3.39535 7.25581 3.39535 12C3.39535 16.7442 7.25581 20.6047 12 20.6047C16.7442 20.6047 20.6047 16.7442 20.6047 12C20.6047 7.25581 16.7442 3.39535 12 3.39535Z" fill="#6C757D"/>
</svg>
