<svg width="28" height="28" viewBox="0 0 28 28" fill="none" xmlns="http://www.w3.org/2000/svg">
<path d="M19.4263 25.6639H8.57356C4.84023 25.6639 2.33325 23.157 2.33325 19.4236V13.9973C2.33325 10.6546 4.39527 8.2345 7.59682 7.83295C7.90069 7.78954 8.23713 7.75697 8.57356 7.75697H19.4263C19.6867 7.75697 20.0232 7.76782 20.3705 7.82209C23.572 8.19108 25.6666 10.6221 25.6666 13.9973V19.4236C25.6666 23.157 23.1596 25.6639 19.4263 25.6639ZM8.57356 9.38488C8.3131 9.38488 8.06348 9.40657 7.81387 9.43913C5.42628 9.74301 3.96116 11.4795 3.96116 13.9973V19.4236C3.96116 22.2236 5.77356 24.036 8.57356 24.036H19.4263C22.2263 24.036 24.0387 22.2236 24.0387 19.4236V13.9973C24.0387 11.4577 22.5519 9.71047 20.1426 9.4283C19.8821 9.38489 19.6542 9.38488 19.4263 9.38488H8.57356Z" fill="#FF704D"/>
<path d="M7.69454 9.45001C7.43408 9.45001 7.19532 9.33063 7.03253 9.11358C6.84803 8.86396 6.82633 8.53838 6.96741 8.26707C7.15191 7.89807 7.41237 7.53993 7.74881 7.21435L11.2759 3.67636C13.0775 1.88566 16.0077 1.88566 17.8093 3.67636L19.7085 5.59731C20.5116 6.38955 21 7.45312 21.0542 8.5818C21.0651 8.83142 20.9674 9.07015 20.7829 9.23294C20.5984 9.39573 20.3488 9.47172 20.11 9.42831C19.893 9.39576 19.665 9.38488 19.4263 9.38488H8.57356C8.3131 9.38488 8.06348 9.40657 7.81387 9.43913C7.78131 9.44998 7.73795 9.45001 7.69454 9.45001ZM9.50695 7.75699H19.231C19.0899 7.38799 18.862 7.05157 18.5581 6.74769L16.648 4.81591C15.4868 3.66552 13.5876 3.66552 12.4155 4.81591L9.50695 7.75699Z" fill="#FF704D"/>
<path d="M24.8526 19.695H21.5968C19.9472 19.695 18.6123 18.3601 18.6123 16.7105C18.6123 15.0608 19.9472 13.726 21.5968 13.726H24.8526C25.2976 13.726 25.6666 14.095 25.6666 14.5399C25.6666 14.9849 25.2976 15.3539 24.8526 15.3539H21.5968C20.848 15.3539 20.2402 15.9616 20.2402 16.7105C20.2402 17.4593 20.848 18.0671 21.5968 18.0671H24.8526C25.2976 18.0671 25.6666 18.436 25.6666 18.881C25.6666 19.326 25.2976 19.695 24.8526 19.695Z" fill="#FF704D"/>
</svg>
