<svg width="24" height="24" viewBox="0 0 24 24" fill="none" xmlns="http://www.w3.org/2000/svg">
<path d="M7.28061 7.82953C7.06726 7.82953 6.87168 7.73174 6.73833 7.55394C6.58721 7.34948 6.56943 7.08276 6.68499 6.86051C6.83612 6.55826 7.04948 6.26492 7.32506 5.99822L10.2143 3.10012C11.69 1.63329 14.0902 1.63329 15.566 3.10012L17.1217 4.68254C17.7795 5.3315 18.1796 6.2027 18.224 7.12725C18.2329 7.33172 18.1529 7.52727 18.0018 7.66062C17.8506 7.79397 17.6462 7.85619 17.4506 7.82063C17.2728 7.79396 17.0861 7.78509 16.8905 7.78509H8.00069C7.78734 7.78509 7.58287 7.80286 7.3784 7.82953C7.35173 7.82953 7.31617 7.82953 7.28061 7.82953ZM8.76522 6.44271H16.7305C16.615 6.14046 16.4283 5.86488 16.1794 5.61596L14.6147 4.03354C13.6635 3.09122 12.1078 3.09122 11.1477 4.03354L8.76522 6.44271Z" fill="#6C757D"/>
<path d="M6.22268 22C4.74696 22 3.36015 21.2177 2.6134 19.9464C2.21336 19.3064 2 18.5507 2 17.7773C2 15.4482 3.89354 13.5546 6.22268 13.5546C8.55182 13.5546 10.4454 15.4482 10.4454 17.7773C10.4454 18.5507 10.232 19.3064 9.83196 19.9553C9.08521 21.2177 7.6984 22 6.22268 22ZM6.22268 14.8881C4.6314 14.8881 3.33348 16.186 3.33348 17.7773C3.33348 18.3018 3.47572 18.8174 3.7513 19.2619C4.2758 20.1509 5.20035 20.6665 6.22268 20.6665C7.24501 20.6665 8.16956 20.142 8.69406 19.2708C8.96965 18.8174 9.11188 18.3107 9.11188 17.7773C9.11188 16.186 7.81396 14.8881 6.22268 14.8881Z" fill="#6C757D"/>
<path d="M7.54706 18.4263H4.89788C4.5334 18.4263 4.23114 18.124 4.23114 17.7595C4.23114 17.395 4.5334 17.0928 4.89788 17.0928H7.55595C7.92043 17.0928 8.22269 17.395 8.22269 17.7595C8.22269 18.124 7.92043 18.4263 7.54706 18.4263Z" fill="#6C757D"/>
<path d="M6.22268 19.7864C5.8582 19.7864 5.55594 19.4842 5.55594 19.1197V16.4616C5.55594 16.0972 5.8582 15.7949 6.22268 15.7949C6.58716 15.7949 6.88942 16.0972 6.88942 16.4616V19.1197C6.88942 19.4931 6.58716 19.7864 6.22268 19.7864Z" fill="#6C757D"/>
<path d="M16.8905 21.111H8.56069C8.27622 21.111 8.0273 20.9332 7.92951 20.6754C7.83173 20.4087 7.91174 20.1153 8.12509 19.9375C8.33845 19.7598 8.53403 19.5286 8.67626 19.2797C8.96074 18.8263 9.10298 18.3107 9.10298 17.7862C9.10298 16.1949 7.80506 14.897 6.21377 14.897C5.38702 14.897 4.59582 15.2526 4.04465 15.8838C3.85796 16.0882 3.5646 16.1683 3.30679 16.0705C3.04899 15.9727 2.87119 15.7238 2.87119 15.4482V11.5544C2.87119 8.81635 4.56026 6.83392 7.18277 6.50499C7.42279 6.46943 7.69838 6.44276 7.98285 6.44276H16.8727C17.0861 6.44276 17.3617 6.45164 17.6461 6.49609C20.2686 6.79835 21.9844 8.78968 21.9844 11.5544V15.9993C22.0022 19.0575 19.9486 21.111 16.8905 21.111ZM9.93862 19.7775H16.8905C19.1841 19.7775 20.6687 18.2929 20.6687 15.9993V11.5544C20.6687 9.4742 19.4508 8.04291 17.4772 7.81177C17.2639 7.77621 17.0772 7.77623 16.8905 7.77623H8.00063C7.78728 7.77623 7.58281 7.794 7.37834 7.82067C5.42258 8.06959 4.22245 9.49198 4.22245 11.5544V14.0614C4.82696 13.7324 5.52038 13.5546 6.22268 13.5546C8.55182 13.5546 10.4454 15.4482 10.4454 17.7773C10.4454 18.4796 10.2675 19.173 9.93862 19.7775Z" fill="#6C757D"/>
<path d="M21.3354 16.2216H18.6685C17.3172 16.2216 16.2238 15.1281 16.2238 13.7769C16.2238 12.4256 17.3172 11.3322 18.6685 11.3322H21.3354C21.6999 11.3322 22.0022 11.6344 22.0022 11.9989C22.0022 12.3634 21.6999 12.6657 21.3354 12.6657H18.6685C18.0551 12.6657 17.5572 13.1635 17.5572 13.7769C17.5572 14.3903 18.0551 14.8881 18.6685 14.8881H21.3354C21.6999 14.8881 22.0022 15.1904 22.0022 15.5549C22.0022 15.9193 21.6999 16.2216 21.3354 16.2216Z" fill="#6C757D"/>
</svg>
